<?xml version="1.0" encoding="UTF-8"?>
<svg xmlns="http://www.w3.org/2000/svg" xmlns:xlink="http://www.w3.org/1999/xlink" width="100px" height="16px" viewBox="0 0 98 16" version="1.1">
<g id="surface1">
<path style=" stroke:none;fill-rule:nonzero;fill:rgb(100%,32.156863%,75.686275%);fill-opacity:1;" d="M 11.417969 0.359375 C 8.265625 0.359375 4.972656 1.074219 1.652344 2 C 1.230469 2.085938 0.820312 2.363281 0.601562 2.703125 C 0.402344 3.027344 0.328125 3.351562 0.265625 3.691406 C -0.0546875 5.507812 -0.015625 7.292969 0.0507812 9.269531 C 0.0664062 9.722656 0.132812 10.257812 0.339844 10.585938 C 0.5625 10.914062 0.9375 11.121094 1.386719 11.191406 C 1.960938 11.277344 2.539062 11.347656 3.117188 11.40625 L 2.988281 14.976562 C 2.96875 15.257812 3.105469 15.496094 3.277344 15.628906 C 3.429688 15.75 3.601562 15.800781 3.777344 15.8125 C 4.128906 15.839844 4.542969 15.6875 4.746094 15.296875 C 5.640625 13.566406 6.203125 12.800781 7.324219 11.648438 C 10.25 11.71875 12.800781 11.558594 15.6875 11.34375 C 16.710938 11.316406 17.410156 10.476562 17.597656 9.808594 C 18.152344 8.070312 18.238281 5.929688 18.296875 3.761719 C 18.320312 2.902344 18.023438 2.058594 17.5 1.613281 C 17 1.207031 16.394531 1.058594 15.84375 0.910156 C 14.304688 0.558594 12.765625 0.371094 11.417969 0.359375 Z M 15.621094 1.71875 C 16.175781 1.871094 16.664062 2.015625 16.972656 2.265625 C 17.488281 2.816406 17.46875 3.183594 17.464844 3.773438 C 17.40625 5.875 17.304688 7.914062 16.832031 9.460938 C 16.628906 10.039062 16.273438 10.449219 15.605469 10.507812 C 12.660156 10.726562 10.109375 10.898438 7.148438 10.8125 C 7.035156 10.808594 6.921875 10.855469 6.839844 10.9375 C 5.59375 12.199219 4.960938 13.074219 4.011719 14.90625 C 3.988281 14.949219 3.941406 14.972656 3.882812 14.976562 C 3.84375 14.976562 3.828125 14.945312 3.824219 14.917969 L 3.953125 11.046875 C 3.960938 10.839844 3.789062 10.640625 3.582031 10.617188 C 2.894531 10.550781 2.203125 10.464844 1.515625 10.363281 C 1.222656 10.316406 1.113281 10.234375 1.03125 10.113281 C 0.890625 9.777344 0.890625 9.566406 0.882812 9.242188 C 0.816406 7.28125 0.78125 5.570312 1.082031 3.867188 C 1.109375 3.613281 1.203125 3.355469 1.304688 3.140625 C 1.46875 2.882812 1.722656 2.84375 1.972656 2.773438 C 5.222656 1.871094 8.402344 1.199219 11.394531 1.195312 C 12.859375 1.25 14.402344 1.398438 15.621094 1.71875 Z M 4.402344 5.039062 C 3.953125 5.578125 3.996094 6.308594 4.34375 6.796875 C 4.523438 7.054688 4.804688 7.261719 5.148438 7.308594 C 5.59375 7.34375 5.878906 7.164062 6.183594 6.953125 C 6.734375 6.472656 6.789062 5.628906 6.371094 5.023438 C 6.15625 4.710938 5.8125 4.527344 5.464844 4.511719 C 4.984375 4.519531 4.660156 4.734375 4.402344 5.039062 Z M 9.242188 4.597656 C 8.796875 4.613281 8.4375 4.921875 8.214844 5.257812 C 7.964844 5.640625 7.816406 6.117188 8.019531 6.589844 C 8.414062 7.492188 9.765625 7.480469 10.308594 6.5625 C 10.554688 6.140625 10.492188 5.660156 10.308594 5.308594 C 10.121094 4.960938 9.84375 4.675781 9.4375 4.609375 C 9.371094 4.601562 9.308594 4.597656 9.242188 4.597656 Z M 13.171875 4.683594 C 13.035156 4.679688 12.890625 4.691406 12.757812 4.726562 C 12.222656 4.871094 11.765625 5.425781 11.832031 6.136719 C 11.867188 6.496094 12.03125 6.84375 12.328125 7.085938 C 12.625 7.324219 13.050781 7.433594 13.503906 7.339844 C 14.023438 7.234375 14.34375 6.8125 14.453125 6.40625 C 14.558594 6 14.53125 5.585938 14.285156 5.25 C 14.019531 4.898438 13.609375 4.6875 13.171875 4.683594 Z M 5.429688 5.347656 C 5.527344 5.347656 5.605469 5.382812 5.6875 5.5 C 5.871094 5.761719 5.820312 6.160156 5.636719 6.320312 C 5.453125 6.480469 5.339844 6.496094 5.257812 6.484375 C 5.179688 6.472656 5.097656 6.417969 5.027344 6.316406 C 4.886719 6.117188 4.847656 5.800781 5.027344 5.570312 C 5.125 5.441406 5.304688 5.363281 5.429688 5.347656 Z M 9.300781 5.441406 C 9.316406 5.441406 9.488281 5.542969 9.574219 5.699219 C 9.65625 5.859375 9.671875 6.003906 9.59375 6.136719 C 9.355469 6.539062 8.855469 6.429688 8.78125 6.257812 C 8.75 6.191406 8.773438 5.921875 8.910156 5.714844 C 9.046875 5.503906 9.21875 5.425781 9.300781 5.441406 Z M 13.613281 5.746094 C 13.640625 5.78125 13.703125 6.007812 13.652344 6.191406 C 13.605469 6.371094 13.527344 6.484375 13.335938 6.523438 C 13.089844 6.574219 12.949219 6.523438 12.847656 6.4375 C 12.742188 6.355469 12.675781 6.210938 12.660156 6.058594 C 12.621094 5.683594 12.757812 5.59375 12.972656 5.539062 C 13.21875 5.476562 13.5 5.582031 13.613281 5.746094 Z M 13.613281 5.746094 "/>
<path style=" stroke:none;fill-rule:nonzero;fill:rgb(0%,14.509804%,18.039216%);fill-opacity:1;" d="M 23.523438 2.050781 C 23.53125 1.941406 23.570312 1.847656 23.640625 1.761719 C 23.710938 1.675781 23.816406 1.628906 23.925781 1.636719 L 26.714844 1.636719 C 26.808594 1.636719 26.90625 1.675781 27.003906 1.753906 C 27.101562 1.820312 27.15625 1.933594 27.15625 2.050781 L 27.15625 6.519531 L 31.820312 6.519531 L 31.820312 2.050781 C 31.820312 1.9375 31.859375 1.839844 31.9375 1.757812 C 32.015625 1.675781 32.117188 1.632812 32.242188 1.632812 L 34.992188 1.632812 C 35.117188 1.632812 35.226562 1.667969 35.320312 1.730469 C 35.414062 1.792969 35.460938 1.890625 35.460938 2.03125 L 35.460938 15.21875 C 35.460938 15.359375 35.417969 15.460938 35.339844 15.53125 C 35.257812 15.601562 35.152344 15.636719 35.019531 15.636719 L 32.242188 15.636719 C 32.117188 15.636719 32.015625 15.601562 31.9375 15.53125 C 31.859375 15.460938 31.820312 15.359375 31.820312 15.21875 L 31.820312 9.867188 L 27.15625 9.867188 L 27.15625 15.21875 C 27.15625 15.351562 27.113281 15.453125 27.027344 15.527344 C 26.945312 15.597656 26.832031 15.636719 26.6875 15.636719 L 23.925781 15.636719 C 23.664062 15.636719 23.53125 15.511719 23.523438 15.269531 Z M 49.199219 15.476562 C 49.117188 15.542969 49.03125 15.589844 48.941406 15.605469 C 48.855469 15.625 48.769531 15.636719 48.683594 15.636719 L 47.265625 15.636719 C 47.152344 15.636719 47.054688 15.613281 46.972656 15.574219 C 46.894531 15.53125 46.824219 15.476562 46.769531 15.410156 C 46.710938 15.335938 46.664062 15.257812 46.628906 15.171875 C 46.589844 15.085938 46.558594 14.992188 46.535156 14.898438 L 46.242188 13.691406 C 46.148438 13.886719 46.011719 14.109375 45.835938 14.359375 C 45.640625 14.621094 45.414062 14.855469 45.152344 15.054688 C 44.878906 15.273438 44.550781 15.453125 44.167969 15.601562 C 43.785156 15.75 43.347656 15.824219 42.855469 15.824219 C 42.140625 15.824219 41.492188 15.6875 40.914062 15.410156 C 40.34375 15.140625 39.835938 14.757812 39.425781 14.277344 C 39.015625 13.800781 38.699219 13.242188 38.472656 12.605469 C 38.246094 11.964844 38.132812 11.285156 38.132812 10.5625 L 38.132812 4.386719 C 38.132812 4.148438 38.1875 3.96875 38.289062 3.847656 C 38.394531 3.722656 38.558594 3.660156 38.78125 3.660156 L 40.949219 3.660156 C 41.21875 3.660156 41.402344 3.707031 41.503906 3.796875 C 41.601562 3.890625 41.652344 4.066406 41.652344 4.332031 L 41.652344 10.46875 C 41.652344 10.738281 41.714844 10.996094 41.835938 11.238281 C 41.957031 11.480469 42.121094 11.691406 42.320312 11.878906 C 42.519531 12.0625 42.746094 12.210938 43 12.316406 C 43.253906 12.421875 43.511719 12.476562 43.773438 12.476562 C 44 12.476562 44.234375 12.421875 44.472656 12.316406 C 44.714844 12.207031 44.941406 12.0625 45.140625 11.886719 C 45.34375 11.707031 45.511719 11.496094 45.640625 11.253906 C 45.773438 11.015625 45.839844 10.757812 45.839844 10.488281 L 45.839844 4.359375 C 45.839844 4.253906 45.859375 4.144531 45.898438 4.039062 C 45.941406 3.933594 46 3.851562 46.082031 3.792969 C 46.164062 3.742188 46.242188 3.710938 46.3125 3.691406 C 46.382812 3.671875 46.46875 3.660156 46.5625 3.660156 L 48.683594 3.660156 C 48.949219 3.660156 49.144531 3.726562 49.265625 3.859375 C 49.382812 3.992188 49.441406 4.167969 49.441406 4.386719 L 49.441406 14.9375 C 49.441406 15.058594 49.414062 15.167969 49.363281 15.269531 C 49.308594 15.367188 49.234375 15.445312 49.140625 15.503906 Z M 60.09375 14.175781 C 59.921875 14.34375 59.738281 14.527344 59.535156 14.722656 C 59.332031 14.914062 59.109375 15.097656 58.863281 15.269531 C 58.617188 15.4375 58.355469 15.578125 58.074219 15.6875 C 57.785156 15.800781 57.476562 15.855469 57.164062 15.851562 C 56.316406 15.851562 55.53125 15.691406 54.8125 15.371094 C 54.117188 15.0625 53.488281 14.617188 52.964844 14.054688 C 52.449219 13.5 52.046875 12.84375 51.753906 12.089844 C 51.464844 11.335938 51.320312 10.527344 51.320312 9.65625 C 51.320312 8.785156 51.464844 7.972656 51.753906 7.222656 C 52.046875 6.46875 52.449219 5.816406 52.964844 5.261719 C 53.484375 4.699219 54.117188 4.253906 54.8125 3.949219 C 55.53125 3.632812 56.316406 3.472656 57.164062 3.472656 C 57.507812 3.472656 57.824219 3.523438 58.109375 3.625 C 58.382812 3.71875 58.644531 3.851562 58.886719 4.011719 C 59.121094 4.167969 59.335938 4.34375 59.535156 4.542969 C 59.730469 4.742188 59.917969 4.933594 60.09375 5.125 L 60.09375 0.8125 C 60.09375 0.613281 60.152344 0.445312 60.277344 0.304688 C 60.398438 0.167969 60.582031 0.0976562 60.824219 0.0976562 L 62.9375 0.0976562 C 63.019531 0.0976562 63.101562 0.117188 63.195312 0.148438 C 63.285156 0.183594 63.367188 0.234375 63.441406 0.296875 C 63.519531 0.359375 63.578125 0.433594 63.625 0.523438 C 63.671875 0.609375 63.695312 0.707031 63.695312 0.8125 L 63.695312 14.910156 C 63.695312 15.394531 63.441406 15.636719 62.9375 15.636719 L 61.097656 15.636719 C 60.972656 15.636719 60.875 15.621094 60.804688 15.589844 C 60.738281 15.558594 60.679688 15.511719 60.632812 15.453125 C 60.578125 15.382812 60.539062 15.304688 60.503906 15.226562 C 60.460938 15.117188 60.414062 15.011719 60.363281 14.910156 Z M 54.695312 9.65625 C 54.695312 10.054688 54.757812 10.449219 54.890625 10.824219 C 55.019531 11.183594 55.199219 11.496094 55.4375 11.761719 C 55.679688 12.027344 55.972656 12.238281 56.296875 12.386719 C 56.632812 12.542969 57.003906 12.617188 57.410156 12.617188 C 57.808594 12.617188 58.1875 12.546875 58.539062 12.402344 C 58.882812 12.261719 59.195312 12.058594 59.464844 11.800781 C 59.730469 11.542969 59.945312 11.238281 60.097656 10.902344 C 60.257812 10.558594 60.347656 10.1875 60.363281 9.789062 L 60.363281 9.65625 C 60.367188 9.261719 60.289062 8.871094 60.140625 8.507812 C 59.996094 8.152344 59.78125 7.824219 59.515625 7.546875 C 59.25 7.269531 58.929688 7.046875 58.578125 6.890625 C 58.210938 6.730469 57.8125 6.648438 57.410156 6.652344 C 57.003906 6.652344 56.632812 6.730469 56.296875 6.890625 C 55.960938 7.050781 55.675781 7.269531 55.4375 7.546875 C 55.195312 7.828125 55.011719 8.15625 54.890625 8.507812 C 54.761719 8.878906 54.695312 9.265625 54.699219 9.65625 Z M 74.589844 14.175781 C 74.421875 14.34375 74.234375 14.527344 74.03125 14.722656 C 73.828125 14.914062 73.605469 15.097656 73.363281 15.269531 C 73.117188 15.4375 72.851562 15.578125 72.574219 15.6875 C 72.28125 15.800781 71.972656 15.855469 71.664062 15.851562 C 70.8125 15.851562 70.027344 15.691406 69.3125 15.371094 C 68.613281 15.0625 67.984375 14.617188 67.464844 14.054688 C 66.949219 13.5 66.542969 12.84375 66.253906 12.089844 C 65.960938 11.335938 65.816406 10.527344 65.816406 9.65625 C 65.816406 8.785156 65.960938 7.972656 66.253906 7.222656 C 66.542969 6.46875 66.949219 5.816406 67.464844 5.261719 C 67.984375 4.699219 68.613281 4.253906 69.3125 3.949219 C 70.027344 3.632812 70.8125 3.472656 71.664062 3.472656 C 72.007812 3.472656 72.320312 3.523438 72.605469 3.625 C 72.878906 3.71875 73.140625 3.851562 73.386719 4.011719 C 73.621094 4.167969 73.835938 4.34375 74.03125 4.542969 C 74.230469 4.742188 74.414062 4.933594 74.589844 5.125 L 74.589844 0.8125 C 74.589844 0.613281 74.652344 0.445312 74.773438 0.304688 C 74.894531 0.167969 75.078125 0.0976562 75.324219 0.0976562 L 77.433594 0.0976562 C 77.515625 0.0976562 77.601562 0.117188 77.691406 0.148438 C 77.78125 0.183594 77.867188 0.234375 77.941406 0.296875 C 78.015625 0.359375 78.078125 0.433594 78.125 0.523438 C 78.171875 0.609375 78.195312 0.707031 78.195312 0.8125 L 78.195312 14.910156 C 78.195312 15.394531 77.941406 15.636719 77.433594 15.636719 L 75.59375 15.636719 C 75.46875 15.636719 75.371094 15.621094 75.304688 15.589844 C 75.234375 15.558594 75.175781 15.511719 75.128906 15.453125 C 75.078125 15.382812 75.035156 15.304688 75.003906 15.226562 C 74.960938 15.117188 74.914062 15.011719 74.863281 14.910156 Z M 69.195312 9.65625 C 69.191406 10.054688 69.257812 10.449219 69.386719 10.824219 C 69.515625 11.183594 69.699219 11.496094 69.9375 11.761719 C 70.175781 12.027344 70.46875 12.238281 70.796875 12.386719 C 71.128906 12.542969 71.5 12.617188 71.90625 12.617188 C 72.308594 12.617188 72.683594 12.546875 73.039062 12.402344 C 73.382812 12.261719 73.695312 12.058594 73.960938 11.800781 C 74.226562 11.542969 74.441406 11.238281 74.59375 10.902344 C 74.753906 10.558594 74.84375 10.1875 74.863281 9.789062 L 74.863281 9.65625 C 74.863281 9.261719 74.789062 8.871094 74.636719 8.507812 C 74.492188 8.152344 74.28125 7.824219 74.015625 7.546875 C 73.746094 7.269531 73.425781 7.046875 73.074219 6.890625 C 72.707031 6.730469 72.308594 6.648438 71.90625 6.652344 C 71.5 6.652344 71.128906 6.730469 70.796875 6.890625 C 70.460938 7.050781 70.175781 7.269531 69.9375 7.546875 C 69.695312 7.828125 69.507812 8.15625 69.386719 8.507812 C 69.257812 8.878906 69.195312 9.265625 69.195312 9.65625 Z M 80.691406 0.824219 C 80.691406 0.621094 80.742188 0.453125 80.839844 0.316406 C 80.941406 0.175781 81.113281 0.109375 81.355469 0.109375 L 83.65625 0.109375 C 83.71875 0.109375 83.785156 0.125 83.851562 0.160156 C 83.925781 0.195312 83.988281 0.246094 84.046875 0.304688 C 84.105469 0.367188 84.15625 0.445312 84.195312 0.53125 C 84.234375 0.621094 84.257812 0.71875 84.257812 0.824219 L 84.257812 14.910156 C 84.257812 15.148438 84.1875 15.328125 84.054688 15.453125 C 83.921875 15.574219 83.746094 15.636719 83.535156 15.636719 L 81.355469 15.636719 C 81.113281 15.636719 80.941406 15.574219 80.839844 15.453125 C 80.742188 15.328125 80.691406 15.148438 80.691406 14.910156 Z M 96.492188 14.203125 C 95.949219 14.707031 95.320312 15.109375 94.636719 15.394531 C 93.941406 15.683594 93.199219 15.828125 92.449219 15.824219 C 91.589844 15.824219 90.78125 15.667969 90.019531 15.351562 C 89.273438 15.050781 88.589844 14.605469 88.011719 14.046875 C 87.433594 13.484375 86.964844 12.820312 86.640625 12.082031 C 86.300781 11.328125 86.132812 10.507812 86.132812 9.621094 C 86.132812 9.066406 86.199219 8.53125 86.335938 8.011719 C 86.464844 7.503906 86.65625 7.015625 86.90625 6.554688 C 87.15625 6.105469 87.457031 5.683594 87.808594 5.308594 C 88.160156 4.929688 88.558594 4.601562 88.996094 4.332031 C 89.441406 4.058594 89.921875 3.84375 90.421875 3.699219 C 90.949219 3.546875 91.496094 3.46875 92.042969 3.472656 C 92.5625 3.472656 93.066406 3.542969 93.554688 3.679688 C 94.042969 3.820312 94.503906 4.015625 94.929688 4.265625 C 95.359375 4.515625 95.75 4.820312 96.109375 5.171875 C 96.460938 5.515625 96.769531 5.90625 97.027344 6.324219 C 97.285156 6.742188 97.484375 7.191406 97.625 7.664062 C 97.765625 8.136719 97.835938 8.628906 97.835938 9.128906 C 97.835938 9.457031 97.832031 9.722656 97.820312 9.929688 C 97.8125 10.136719 97.761719 10.304688 97.675781 10.425781 C 97.585938 10.550781 97.441406 10.632812 97.238281 10.679688 C 97.035156 10.726562 96.738281 10.75 96.34375 10.75 L 89.585938 10.75 C 89.648438 11.152344 89.777344 11.488281 89.964844 11.761719 C 90.144531 12.015625 90.367188 12.234375 90.628906 12.40625 C 90.878906 12.566406 91.144531 12.679688 91.425781 12.75 C 91.6875 12.816406 91.953125 12.851562 92.222656 12.855469 C 92.449219 12.855469 92.679688 12.832031 92.917969 12.785156 C 93.152344 12.738281 93.382812 12.675781 93.609375 12.59375 C 93.816406 12.519531 94.023438 12.429688 94.21875 12.320312 C 94.402344 12.21875 94.550781 12.109375 94.664062 11.996094 C 94.761719 11.914062 94.847656 11.851562 94.921875 11.8125 C 94.992188 11.769531 95.070312 11.75 95.152344 11.75 C 95.234375 11.75 95.316406 11.78125 95.398438 11.835938 C 95.503906 11.90625 95.597656 11.988281 95.6875 12.082031 L 96.679688 13.210938 C 96.75 13.292969 96.792969 13.367188 96.8125 13.433594 C 96.832031 13.5 96.839844 13.566406 96.839844 13.636719 C 96.839844 13.761719 96.804688 13.871094 96.738281 13.960938 C 96.667969 14.054688 96.585938 14.132812 96.492188 14.203125 Z M 91.980469 6.347656 C 91.734375 6.347656 91.5 6.398438 91.269531 6.496094 C 91.039062 6.59375 90.824219 6.726562 90.628906 6.886719 C 90.429688 7.050781 90.25 7.234375 90.089844 7.441406 C 89.9375 7.636719 89.804688 7.851562 89.699219 8.074219 L 94.492188 8.074219 C 94.367188 7.835938 94.226562 7.609375 94.066406 7.394531 C 93.917969 7.191406 93.738281 7.007812 93.542969 6.847656 C 93.339844 6.6875 93.109375 6.5625 92.867188 6.480469 C 92.613281 6.394531 92.316406 6.347656 91.980469 6.347656 Z M 91.980469 6.347656 "/>
</g>
</svg>
